<svg xmlns="http://www.w3.org/2000/svg" xmlns:xlink="http://www.w3.org/1999/xlink" version="1.1" x="0px" y="0px" viewBox="0 0 500 625" style="enable-background:new 0 0 500 500;" xml:space="preserve"><path d="M401,100.3h-15.8L112.3,13.7c-7.9-2.5-16.3,1.9-18.8,9.8s1.9,16.3,9.8,18.8l182.7,57.9H99c-4.4,0-8.5,1.9-11.4,5.2  c-2.8,3.3-4.1,7.7-3.5,12l47.5,323.8c1.1,7.4,7.4,12.8,14.8,12.8h114.2c6.3,19.1,24.3,32.9,45.5,32.9c26.4,0,47.9-21.5,47.9-47.9  c0-18.6-10.6-34.7-26.1-42.6l41.5-266.2h13.2c0,0,0.1,0,0.1,0c0,0,0.1,0,0.1,0h18c8.3,0,15-6.7,15-15S409.3,100.3,401,100.3z   M208.2,330.6h-38.4c-5.3,0-10.1-2.8-12.9-7.3c-2.7-4.5-2.9-10.1-0.4-14.8l17.3-32.6c3.9-7.3,13-10.1,20.3-6.2  c7.3,3.9,10.1,13,6.2,20.3l-5.6,10.6h13.5c8.3,0,15,6.7,15,15S216.5,330.6,208.2,330.6z M226.8,247.9l-5.6,9.6  c-2.8,4.8-7.8,7.4-13,7.4c-2.6,0-5.2-0.7-7.6-2.1c-7.1-4.2-9.6-13.4-5.4-20.5l19.4-33.1c2.8-4.7,7.9-7.6,13.3-7.4  c5.5,0.1,10.4,3.2,12.9,8.1l16.4,31.6c3.8,7.4,0.9,16.4-6.4,20.2c-7.4,3.8-16.4,0.9-20.2-6.4L226.8,247.9z M246.2,330.6  c-8.3,0-15-6.7-15-15s6.7-15,15-15h13l-6-10.2c-4.2-7.1-1.8-16.3,5.4-20.5c7.1-4.2,16.3-1.8,20.5,5.4l19.2,32.8  c2.7,4.6,2.7,10.4,0.1,15c-2.7,4.7-7.6,7.5-13,7.5H246.2z M306.3,457c-9.9,0-17.9-8-17.9-17.9s8-17.9,17.9-17.9c0.6,0,1.1,0,1.7,0.1  c0.2,0,0.3,0,0.5,0.1c8.9,1.1,15.8,8.6,15.8,17.8C324.2,448.9,316.2,457,306.3,457z"/></svg>
