<svg width="22" height="29" viewBox="0 0 22 29" fill="none" xmlns="http://www.w3.org/2000/svg">
<path d="M0.0178787 1.68526C-0.121591 0.767083 0.581567 0 1.5811 0H19.6831C20.6807 0 21.38 0.767083 21.2463 1.68526L21.0894 3.03928L19.0051 24.4072C18.7765 25.8658 18.1799 27.0435 17.3431 27.8455C17.3024 27.892 17.2714 27.9462 17.2211 27.9869C17.1901 28.0102 17.1533 28.016 17.1203 28.0353C16.392 28.6455 15.5106 29 14.5208 29H6.73954C4.39374 29 2.63294 27.1888 2.24939 24.3529L0.163161 2.94823L0.0178787 1.68526ZM2.58063 7.77156L5.38746 3.88384L5.33322 3.81217H2.19516L2.58063 7.77156ZM3.47169 16.9146L5.49981 14.2608L2.88088 10.838L3.47169 16.9146ZM4.65912 25.6953L6.1158 23.7796L3.88429 21.151L4.17485 24.1263C4.24652 24.6648 4.40342 25.2169 4.65912 25.6953ZM16.6225 25.6082C16.853 25.1568 17.008 24.6513 17.0835 24.1631L17.376 21.1703L15.1949 23.7428L16.6225 25.6082ZM19.0671 3.81217H15.9213L15.869 3.8819L18.6816 7.77543L19.0671 3.81217ZM7.82624 3.81217L7.79912 3.84898L10.6292 7.54492L13.4535 3.84898L13.4263 3.81217H7.82624ZM10.6311 10.7353L7.93665 14.2588L10.6544 17.8114L13.343 14.2801L10.6311 10.7353ZM14.5595 12.6821L17.2637 9.12364L14.637 5.48968L11.8496 9.14107L14.5595 12.6821ZM9.41077 9.14107L6.6175 5.48968L4.00051 9.11395L6.7163 12.6646L9.41077 9.14107ZM18.3794 10.8573L15.7799 14.2763L17.7906 16.9029L18.3794 10.8573ZM16.824 18.8265L14.5634 15.8763L11.8747 19.4076L13.9881 22.1699L16.824 18.8265ZM10.6602 21.0057L8.60301 23.7098L10.6447 26.1118L12.7077 23.6788L10.6602 21.0057ZM9.43983 19.4115L6.72017 15.855L4.44991 18.8265L7.31679 22.1989L9.43983 19.4115ZM15.2007 26.9409L13.9106 25.2537L12.3764 27.0629H14.5208C14.7687 27.0629 14.9915 27.0126 15.2007 26.9409ZM8.90519 27.0629L7.40009 25.2905L6.11968 26.9719C6.31145 27.0261 6.51484 27.0629 6.73954 27.0629H8.90519Z" fill="black"/>
</svg>
