<svg width="600" height="227" viewBox="0 0 600 227" fill="none" xmlns="http://www.w3.org/2000/svg">
<mask id="path-1-inside-1" fill="white">
<path d="M346.707 171.924C339.609 155.492 351.171 145.424 363.884 140.235L395.778 138.824L395.861 120.324L416.141 148.38L432.053 155.924L451.459 148.702L482.742 125.491L507.502 93.3302L513.154 50.0107L496.575 17.1013L481.418 0.70714L487.922 0L510.847 21.4321L519.827 36.4881L525.104 49.348L530.553 49.3928L539.413 39.7507L543.152 28.0183L545.011 17.3238L547.295 19.625L547.641 27.2359L546.837 37.1783L540.163 50.7009L530.382 62.2082L521.524 88.471L525.821 90.8473L540.667 85.7021L549.872 67.0502L551.961 55.8893L553.13 46.5937L555.604 45.7361L557.275 54.8209L557.334 67.1699L554.48 90.9656L561.75 94.2441L574.621 91.7163L586.225 83.4428L596.449 77.967L599.422 78.8694L589.008 87.5038L577.212 98.9366L564.38 104.157L551.01 104.925L535.07 108.13L525.038 110.447L512.704 117.427L497.419 133.161L480.348 148.354L457.926 161.923L436.022 170.287L434.181 174.018L439.437 177.221L456.088 182.274L477.476 179.114L490.04 171.667L498.709 165.184L504.405 157.798L507.053 160.746L501.53 171.937L491.575 179.639L479.837 186.8L457.624 190.246L438.038 186.983L418.414 181.028L396.047 177.232L378.534 179.866L366.661 185.913L359.468 190.02L353.721 182.924C353.721 182.924 348.404 175.851 346.707 171.924Z"/>
<path d="M310.646 206.403L339.417 162.924C339.676 167.142 341.54 170.924 342.815 173.924C344.09 176.424 344.326 176.682 345.365 178.424C351.742 187.924 363.732 202.015 363.732 202.015L317.512 225.795C317.512 225.795 312.192 219.377 310.925 216.9C309.657 214.424 308.382 210.424 310.646 206.403Z"/>
<path d="M252.883 172.272C259.987 155.84 248.417 145.772 235.695 140.582L203.78 139.171L203.697 120.671L183.404 148.728L167.481 156.272L148.062 149.049L116.758 125.838L91.9819 93.6776L86.3259 50.3581L102.916 17.4487L118.083 1.05454L111.575 0.347412L88.634 21.7795L79.6481 36.8355L74.3678 49.6954L68.9157 49.7402L60.049 40.0981L56.3074 28.3657L54.4474 17.6712L52.1625 19.9724L51.8158 27.5833L52.6205 37.5257L59.2984 51.0483L69.0861 62.5556L77.9503 88.8184L73.6504 91.1947L58.794 86.0495L49.5832 67.3976L47.4926 56.2367L46.3232 46.9411L43.8473 46.0835L42.1759 55.1684L42.1164 67.5173L44.9728 91.313L37.6973 94.5915L24.8177 92.0637L13.2058 83.7902L2.97568 78.3144L0 79.2168L10.4214 87.8512L22.2247 99.2836L35.0655 104.504L48.4444 105.272L64.3951 108.477L74.4343 110.794L86.7758 117.774L102.072 133.508L119.154 148.701L141.591 162.27L163.51 170.635L165.352 174.365L160.092 177.569L143.43 182.621L122.027 179.461L109.456 172.015L100.781 165.531L95.081 158.146L92.4313 161.094L97.958 172.285L107.919 179.987L119.665 187.147L141.893 190.593L161.492 187.331L181.129 181.376L203.511 177.579L221.036 180.213L232.917 186.261L240.115 190.367L245.865 183.272C245.865 183.272 251.186 176.198 252.883 172.272Z"/>
<path d="M289.156 206.676L260.366 163.197C260.106 167.415 258.242 171.198 256.966 174.198C255.689 176.698 255.454 176.956 254.413 178.698C248.033 188.198 236.034 202.289 236.034 202.289L282.286 226.068C282.286 226.068 287.609 219.65 288.877 217.174C290.145 214.698 291.421 210.698 289.156 206.676Z"/>
<path d="M124.88 92.4531H150.412V94.2988H123V44.5332H124.88V92.4531ZM192.146 73.1416C192.146 77.4482 191.371 81.265 189.821 84.5918C188.295 87.8958 186.107 90.4593 183.259 92.2822C180.411 94.0823 177.129 94.9824 173.415 94.9824C167.81 94.9824 163.275 92.9886 159.812 89.001C156.348 85.0133 154.616 79.6357 154.616 72.8682V65.6904C154.616 61.4066 155.38 57.6012 156.906 54.2744C158.456 50.9476 160.655 48.3841 163.503 46.584C166.374 44.7611 169.655 43.8496 173.347 43.8496C177.061 43.8496 180.342 44.7611 183.19 46.584C186.062 48.3841 188.272 50.959 189.821 54.3086C191.371 57.6354 192.146 61.4294 192.146 65.6904V73.1416ZM190.3 65.6221C190.3 59.6064 188.773 54.7871 185.72 51.1641C182.666 47.5182 178.542 45.6953 173.347 45.6953C168.22 45.6953 164.13 47.5068 161.076 51.1299C158.023 54.7301 156.496 59.6406 156.496 65.8613V73.1416C156.496 77.1064 157.18 80.6156 158.547 83.6689C159.937 86.6995 161.908 89.0351 164.46 90.6758C167.012 92.3164 169.997 93.1367 173.415 93.1367C178.61 93.1367 182.723 91.3252 185.754 87.7021C188.785 84.0791 190.3 79.1344 190.3 72.8682V65.6221ZM213.405 91.2226L215.661 83.0195L227.419 44.5332H229.47L241.159 83.0195L243.381 91.2226L245.705 83.0195L255.959 44.5332H257.975L244.577 94.2988H242.492L230.153 52.8047L228.41 47.541L226.735 52.8047L214.294 94.2988H212.209L198.776 44.5332H200.827L211.149 83.0195L213.405 91.2226ZM300.563 46.3789H282.448V94.2988H280.602V46.3789H262.487V44.5332H300.563V46.3789ZM328.215 73.0049H310.954V94.2988H309.108V44.5332H324.968C329.958 44.5332 333.923 45.8206 336.862 48.3955C339.824 50.9704 341.306 54.4681 341.306 58.8887C341.306 62.2838 340.246 65.2575 338.127 67.8096C336.03 70.3389 333.353 71.9111 330.095 72.5264L343.391 93.8203V94.2988H341.442L328.215 73.0049ZM310.954 71.1592H326.642C330.471 71.1592 333.558 69.9971 335.905 67.6728C338.275 65.3486 339.46 62.4206 339.46 58.8887C339.46 55.015 338.15 51.9616 335.529 49.7285C332.932 47.4954 329.365 46.3789 324.831 46.3789H310.954V71.1592ZM390.319 73.1416C390.319 77.4482 389.544 81.265 387.995 84.5918C386.468 87.8958 384.281 90.4593 381.432 92.2822C378.584 94.0823 375.303 94.9824 371.589 94.9824C365.983 94.9824 361.449 92.9886 357.985 89.001C354.522 85.0133 352.79 79.6357 352.79 72.8682V65.6904C352.79 61.4066 353.553 57.6012 355.08 54.2744C356.629 50.9476 358.828 48.3841 361.677 46.584C364.548 44.7611 367.829 43.8496 371.52 43.8496C375.235 43.8496 378.516 44.7611 381.364 46.584C384.235 48.3841 386.446 50.959 387.995 54.3086C389.544 57.6354 390.319 61.4294 390.319 65.6904V73.1416ZM388.474 65.6221C388.474 59.6064 386.947 54.7871 383.893 51.1641C380.84 47.5182 376.716 45.6953 371.52 45.6953C366.393 45.6953 362.303 47.5068 359.25 51.1299C356.196 54.7301 354.67 59.6406 354.67 65.8613V73.1416C354.67 77.1064 355.353 80.6156 356.721 83.6689C358.111 86.6995 360.082 89.0351 362.634 90.6758C365.186 92.3164 368.171 93.1367 371.589 93.1367C376.784 93.1367 380.897 91.3252 383.928 87.7021C386.958 84.0791 388.474 79.1344 388.474 72.8682V65.6221ZM403.547 73.2783V94.2988H401.701V44.5332H417.253C422.334 44.5332 426.276 45.8206 429.079 48.3955C431.904 50.9476 433.317 54.5023 433.317 59.0596C433.317 63.5713 431.939 67.0576 429.182 69.5185C426.447 71.9795 422.551 73.2327 417.492 73.2783H403.547ZM403.547 71.4326H417.253C421.742 71.4326 425.228 70.3503 427.712 68.1855C430.218 66.0208 431.472 63.0016 431.472 59.1279C431.472 55.1175 430.218 51.9958 427.712 49.7627C425.228 47.5068 421.742 46.3789 417.253 46.3789H403.547V71.4326ZM457.722 73.7226L475.153 44.5332H477.409L458.644 75.3975V94.2988H456.799V75.3975L438.034 44.5332H440.495L457.722 73.7226Z"/>
</mask>
<path d="M346.707 171.924C339.609 155.492 351.171 145.424 363.884 140.235L395.778 138.824L395.861 120.324L416.141 148.38L432.053 155.924L451.459 148.702L482.742 125.491L507.502 93.3302L513.154 50.0107L496.575 17.1013L481.418 0.70714L487.922 0L510.847 21.4321L519.827 36.4881L525.104 49.348L530.553 49.3928L539.413 39.7507L543.152 28.0183L545.011 17.3238L547.295 19.625L547.641 27.2359L546.837 37.1783L540.163 50.7009L530.382 62.2082L521.524 88.471L525.821 90.8473L540.667 85.7021L549.872 67.0502L551.961 55.8893L553.13 46.5937L555.604 45.7361L557.275 54.8209L557.334 67.1699L554.48 90.9656L561.75 94.2441L574.621 91.7163L586.225 83.4428L596.449 77.967L599.422 78.8694L589.008 87.5038L577.212 98.9366L564.38 104.157L551.01 104.925L535.07 108.13L525.038 110.447L512.704 117.427L497.419 133.161L480.348 148.354L457.926 161.923L436.022 170.287L434.181 174.018L439.437 177.221L456.088 182.274L477.476 179.114L490.04 171.667L498.709 165.184L504.405 157.798L507.053 160.746L501.53 171.937L491.575 179.639L479.837 186.8L457.624 190.246L438.038 186.983L418.414 181.028L396.047 177.232L378.534 179.866L366.661 185.913L359.468 190.02L353.721 182.924C353.721 182.924 348.404 175.851 346.707 171.924Z" fill="#FCFCFC"/>
<path d="M310.646 206.403L339.417 162.924C339.676 167.142 341.54 170.924 342.815 173.924C344.09 176.424 344.326 176.682 345.365 178.424C351.742 187.924 363.732 202.015 363.732 202.015L317.512 225.795C317.512 225.795 312.192 219.377 310.925 216.9C309.657 214.424 308.382 210.424 310.646 206.403Z" fill="#FCFCFC"/>
<path d="M252.883 172.272C259.987 155.84 248.417 145.772 235.695 140.582L203.78 139.171L203.697 120.671L183.404 148.728L167.481 156.272L148.062 149.049L116.758 125.838L91.9819 93.6776L86.3259 50.3581L102.916 17.4487L118.083 1.05454L111.575 0.347412L88.634 21.7795L79.6481 36.8355L74.3678 49.6954L68.9157 49.7402L60.049 40.0981L56.3074 28.3657L54.4474 17.6712L52.1625 19.9724L51.8158 27.5833L52.6205 37.5257L59.2984 51.0483L69.0861 62.5556L77.9503 88.8184L73.6504 91.1947L58.794 86.0495L49.5832 67.3976L47.4926 56.2367L46.3232 46.9411L43.8473 46.0835L42.1759 55.1684L42.1164 67.5173L44.9728 91.313L37.6973 94.5915L24.8177 92.0637L13.2058 83.7902L2.97568 78.3144L0 79.2168L10.4214 87.8512L22.2247 99.2836L35.0655 104.504L48.4444 105.272L64.3951 108.477L74.4343 110.794L86.7758 117.774L102.072 133.508L119.154 148.701L141.591 162.27L163.51 170.635L165.352 174.365L160.092 177.569L143.43 182.621L122.027 179.461L109.456 172.015L100.781 165.531L95.081 158.146L92.4313 161.094L97.958 172.285L107.919 179.987L119.665 187.147L141.893 190.593L161.492 187.331L181.129 181.376L203.511 177.579L221.036 180.213L232.917 186.261L240.115 190.367L245.865 183.272C245.865 183.272 251.186 176.198 252.883 172.272Z" fill="#FCFCFC"/>
<path d="M289.156 206.676L260.366 163.197C260.106 167.415 258.242 171.198 256.966 174.198C255.689 176.698 255.454 176.956 254.413 178.698C248.033 188.198 236.034 202.289 236.034 202.289L282.286 226.068C282.286 226.068 287.609 219.65 288.877 217.174C290.145 214.698 291.421 210.698 289.156 206.676Z" fill="#FCFCFC"/>
<path d="M124.88 92.4531H150.412V94.2988H123V44.5332H124.88V92.4531ZM192.146 73.1416C192.146 77.4482 191.371 81.265 189.821 84.5918C188.295 87.8958 186.107 90.4593 183.259 92.2822C180.411 94.0823 177.129 94.9824 173.415 94.9824C167.81 94.9824 163.275 92.9886 159.812 89.001C156.348 85.0133 154.616 79.6357 154.616 72.8682V65.6904C154.616 61.4066 155.38 57.6012 156.906 54.2744C158.456 50.9476 160.655 48.3841 163.503 46.584C166.374 44.7611 169.655 43.8496 173.347 43.8496C177.061 43.8496 180.342 44.7611 183.19 46.584C186.062 48.3841 188.272 50.959 189.821 54.3086C191.371 57.6354 192.146 61.4294 192.146 65.6904V73.1416ZM190.3 65.6221C190.3 59.6064 188.773 54.7871 185.72 51.1641C182.666 47.5182 178.542 45.6953 173.347 45.6953C168.22 45.6953 164.13 47.5068 161.076 51.1299C158.023 54.7301 156.496 59.6406 156.496 65.8613V73.1416C156.496 77.1064 157.18 80.6156 158.547 83.6689C159.937 86.6995 161.908 89.0351 164.46 90.6758C167.012 92.3164 169.997 93.1367 173.415 93.1367C178.61 93.1367 182.723 91.3252 185.754 87.7021C188.785 84.0791 190.3 79.1344 190.3 72.8682V65.6221ZM213.405 91.2226L215.661 83.0195L227.419 44.5332H229.47L241.159 83.0195L243.381 91.2226L245.705 83.0195L255.959 44.5332H257.975L244.577 94.2988H242.492L230.153 52.8047L228.41 47.541L226.735 52.8047L214.294 94.2988H212.209L198.776 44.5332H200.827L211.149 83.0195L213.405 91.2226ZM300.563 46.3789H282.448V94.2988H280.602V46.3789H262.487V44.5332H300.563V46.3789ZM328.215 73.0049H310.954V94.2988H309.108V44.5332H324.968C329.958 44.5332 333.923 45.8206 336.862 48.3955C339.824 50.9704 341.306 54.4681 341.306 58.8887C341.306 62.2838 340.246 65.2575 338.127 67.8096C336.03 70.3389 333.353 71.9111 330.095 72.5264L343.391 93.8203V94.2988H341.442L328.215 73.0049ZM310.954 71.1592H326.642C330.471 71.1592 333.558 69.9971 335.905 67.6728C338.275 65.3486 339.46 62.4206 339.46 58.8887C339.46 55.015 338.15 51.9616 335.529 49.7285C332.932 47.4954 329.365 46.3789 324.831 46.3789H310.954V71.1592ZM390.319 73.1416C390.319 77.4482 389.544 81.265 387.995 84.5918C386.468 87.8958 384.281 90.4593 381.432 92.2822C378.584 94.0823 375.303 94.9824 371.589 94.9824C365.983 94.9824 361.449 92.9886 357.985 89.001C354.522 85.0133 352.79 79.6357 352.79 72.8682V65.6904C352.79 61.4066 353.553 57.6012 355.08 54.2744C356.629 50.9476 358.828 48.3841 361.677 46.584C364.548 44.7611 367.829 43.8496 371.52 43.8496C375.235 43.8496 378.516 44.7611 381.364 46.584C384.235 48.3841 386.446 50.959 387.995 54.3086C389.544 57.6354 390.319 61.4294 390.319 65.6904V73.1416ZM388.474 65.6221C388.474 59.6064 386.947 54.7871 383.893 51.1641C380.84 47.5182 376.716 45.6953 371.52 45.6953C366.393 45.6953 362.303 47.5068 359.25 51.1299C356.196 54.7301 354.67 59.6406 354.67 65.8613V73.1416C354.67 77.1064 355.353 80.6156 356.721 83.6689C358.111 86.6995 360.082 89.0351 362.634 90.6758C365.186 92.3164 368.171 93.1367 371.589 93.1367C376.784 93.1367 380.897 91.3252 383.928 87.7021C386.958 84.0791 388.474 79.1344 388.474 72.8682V65.6221ZM403.547 73.2783V94.2988H401.701V44.5332H417.253C422.334 44.5332 426.276 45.8206 429.079 48.3955C431.904 50.9476 433.317 54.5023 433.317 59.0596C433.317 63.5713 431.939 67.0576 429.182 69.5185C426.447 71.9795 422.551 73.2327 417.492 73.2783H403.547ZM403.547 71.4326H417.253C421.742 71.4326 425.228 70.3503 427.712 68.1855C430.218 66.0208 431.472 63.0016 431.472 59.1279C431.472 55.1175 430.218 51.9958 427.712 49.7627C425.228 47.5068 421.742 46.3789 417.253 46.3789H403.547V71.4326ZM457.722 73.7226L475.153 44.5332H477.409L458.644 75.3975V94.2988H456.799V75.3975L438.034 44.5332H440.495L457.722 73.7226Z" fill="#FCFCFC"/>
<path d="M346.707 171.924C339.609 155.492 351.171 145.424 363.884 140.235L395.778 138.824L395.861 120.324L416.141 148.38L432.053 155.924L451.459 148.702L482.742 125.491L507.502 93.3302L513.154 50.0107L496.575 17.1013L481.418 0.70714L487.922 0L510.847 21.4321L519.827 36.4881L525.104 49.348L530.553 49.3928L539.413 39.7507L543.152 28.0183L545.011 17.3238L547.295 19.625L547.641 27.2359L546.837 37.1783L540.163 50.7009L530.382 62.2082L521.524 88.471L525.821 90.8473L540.667 85.7021L549.872 67.0502L551.961 55.8893L553.13 46.5937L555.604 45.7361L557.275 54.8209L557.334 67.1699L554.48 90.9656L561.75 94.2441L574.621 91.7163L586.225 83.4428L596.449 77.967L599.422 78.8694L589.008 87.5038L577.212 98.9366L564.38 104.157L551.01 104.925L535.07 108.13L525.038 110.447L512.704 117.427L497.419 133.161L480.348 148.354L457.926 161.923L436.022 170.287L434.181 174.018L439.437 177.221L456.088 182.274L477.476 179.114L490.04 171.667L498.709 165.184L504.405 157.798L507.053 160.746L501.53 171.937L491.575 179.639L479.837 186.8L457.624 190.246L438.038 186.983L418.414 181.028L396.047 177.232L378.534 179.866L366.661 185.913L359.468 190.02L353.721 182.924C353.721 182.924 348.404 175.851 346.707 171.924Z" stroke="black" stroke-width="4" mask="url(#path-1-inside-1)"/>
<path d="M310.646 206.403L339.417 162.924C339.676 167.142 341.54 170.924 342.815 173.924C344.09 176.424 344.326 176.682 345.365 178.424C351.742 187.924 363.732 202.015 363.732 202.015L317.512 225.795C317.512 225.795 312.192 219.377 310.925 216.9C309.657 214.424 308.382 210.424 310.646 206.403Z" stroke="black" stroke-width="4" mask="url(#path-1-inside-1)"/>
<path d="M252.883 172.272C259.987 155.84 248.417 145.772 235.695 140.582L203.78 139.171L203.697 120.671L183.404 148.728L167.481 156.272L148.062 149.049L116.758 125.838L91.9819 93.6776L86.3259 50.3581L102.916 17.4487L118.083 1.05454L111.575 0.347412L88.634 21.7795L79.6481 36.8355L74.3678 49.6954L68.9157 49.7402L60.049 40.0981L56.3074 28.3657L54.4474 17.6712L52.1625 19.9724L51.8158 27.5833L52.6205 37.5257L59.2984 51.0483L69.0861 62.5556L77.9503 88.8184L73.6504 91.1947L58.794 86.0495L49.5832 67.3976L47.4926 56.2367L46.3232 46.9411L43.8473 46.0835L42.1759 55.1684L42.1164 67.5173L44.9728 91.313L37.6973 94.5915L24.8177 92.0637L13.2058 83.7902L2.97568 78.3144L0 79.2168L10.4214 87.8512L22.2247 99.2836L35.0655 104.504L48.4444 105.272L64.3951 108.477L74.4343 110.794L86.7758 117.774L102.072 133.508L119.154 148.701L141.591 162.27L163.51 170.635L165.352 174.365L160.092 177.569L143.43 182.621L122.027 179.461L109.456 172.015L100.781 165.531L95.081 158.146L92.4313 161.094L97.958 172.285L107.919 179.987L119.665 187.147L141.893 190.593L161.492 187.331L181.129 181.376L203.511 177.579L221.036 180.213L232.917 186.261L240.115 190.367L245.865 183.272C245.865 183.272 251.186 176.198 252.883 172.272Z" stroke="black" stroke-width="4" mask="url(#path-1-inside-1)"/>
<path d="M289.156 206.676L260.366 163.197C260.106 167.415 258.242 171.198 256.966 174.198C255.689 176.698 255.454 176.956 254.413 178.698C248.033 188.198 236.034 202.289 236.034 202.289L282.286 226.068C282.286 226.068 287.609 219.65 288.877 217.174C290.145 214.698 291.421 210.698 289.156 206.676Z" stroke="black" stroke-width="4" mask="url(#path-1-inside-1)"/>
<path d="M124.88 92.4531H150.412V94.2988H123V44.5332H124.88V92.4531ZM192.146 73.1416C192.146 77.4482 191.371 81.265 189.821 84.5918C188.295 87.8958 186.107 90.4593 183.259 92.2822C180.411 94.0823 177.129 94.9824 173.415 94.9824C167.81 94.9824 163.275 92.9886 159.812 89.001C156.348 85.0133 154.616 79.6357 154.616 72.8682V65.6904C154.616 61.4066 155.38 57.6012 156.906 54.2744C158.456 50.9476 160.655 48.3841 163.503 46.584C166.374 44.7611 169.655 43.8496 173.347 43.8496C177.061 43.8496 180.342 44.7611 183.19 46.584C186.062 48.3841 188.272 50.959 189.821 54.3086C191.371 57.6354 192.146 61.4294 192.146 65.6904V73.1416ZM190.3 65.6221C190.3 59.6064 188.773 54.7871 185.72 51.1641C182.666 47.5182 178.542 45.6953 173.347 45.6953C168.22 45.6953 164.13 47.5068 161.076 51.1299C158.023 54.7301 156.496 59.6406 156.496 65.8613V73.1416C156.496 77.1064 157.18 80.6156 158.547 83.6689C159.937 86.6995 161.908 89.0351 164.46 90.6758C167.012 92.3164 169.997 93.1367 173.415 93.1367C178.61 93.1367 182.723 91.3252 185.754 87.7021C188.785 84.0791 190.3 79.1344 190.3 72.8682V65.6221ZM213.405 91.2226L215.661 83.0195L227.419 44.5332H229.47L241.159 83.0195L243.381 91.2226L245.705 83.0195L255.959 44.5332H257.975L244.577 94.2988H242.492L230.153 52.8047L228.41 47.541L226.735 52.8047L214.294 94.2988H212.209L198.776 44.5332H200.827L211.149 83.0195L213.405 91.2226ZM300.563 46.3789H282.448V94.2988H280.602V46.3789H262.487V44.5332H300.563V46.3789ZM328.215 73.0049H310.954V94.2988H309.108V44.5332H324.968C329.958 44.5332 333.923 45.8206 336.862 48.3955C339.824 50.9704 341.306 54.4681 341.306 58.8887C341.306 62.2838 340.246 65.2575 338.127 67.8096C336.03 70.3389 333.353 71.9111 330.095 72.5264L343.391 93.8203V94.2988H341.442L328.215 73.0049ZM310.954 71.1592H326.642C330.471 71.1592 333.558 69.9971 335.905 67.6728C338.275 65.3486 339.46 62.4206 339.46 58.8887C339.46 55.015 338.15 51.9616 335.529 49.7285C332.932 47.4954 329.365 46.3789 324.831 46.3789H310.954V71.1592ZM390.319 73.1416C390.319 77.4482 389.544 81.265 387.995 84.5918C386.468 87.8958 384.281 90.4593 381.432 92.2822C378.584 94.0823 375.303 94.9824 371.589 94.9824C365.983 94.9824 361.449 92.9886 357.985 89.001C354.522 85.0133 352.79 79.6357 352.79 72.8682V65.6904C352.79 61.4066 353.553 57.6012 355.08 54.2744C356.629 50.9476 358.828 48.3841 361.677 46.584C364.548 44.7611 367.829 43.8496 371.52 43.8496C375.235 43.8496 378.516 44.7611 381.364 46.584C384.235 48.3841 386.446 50.959 387.995 54.3086C389.544 57.6354 390.319 61.4294 390.319 65.6904V73.1416ZM388.474 65.6221C388.474 59.6064 386.947 54.7871 383.893 51.1641C380.84 47.5182 376.716 45.6953 371.52 45.6953C366.393 45.6953 362.303 47.5068 359.25 51.1299C356.196 54.7301 354.67 59.6406 354.67 65.8613V73.1416C354.67 77.1064 355.353 80.6156 356.721 83.6689C358.111 86.6995 360.082 89.0351 362.634 90.6758C365.186 92.3164 368.171 93.1367 371.589 93.1367C376.784 93.1367 380.897 91.3252 383.928 87.7021C386.958 84.0791 388.474 79.1344 388.474 72.8682V65.6221ZM403.547 73.2783V94.2988H401.701V44.5332H417.253C422.334 44.5332 426.276 45.8206 429.079 48.3955C431.904 50.9476 433.317 54.5023 433.317 59.0596C433.317 63.5713 431.939 67.0576 429.182 69.5185C426.447 71.9795 422.551 73.2327 417.492 73.2783H403.547ZM403.547 71.4326H417.253C421.742 71.4326 425.228 70.3503 427.712 68.1855C430.218 66.0208 431.472 63.0016 431.472 59.1279C431.472 55.1175 430.218 51.9958 427.712 49.7627C425.228 47.5068 421.742 46.3789 417.253 46.3789H403.547V71.4326ZM457.722 73.7226L475.153 44.5332H477.409L458.644 75.3975V94.2988H456.799V75.3975L438.034 44.5332H440.495L457.722 73.7226Z" stroke="black" stroke-width="4" mask="url(#path-1-inside-1)"/>
</svg>
